<mxfile host="app.diagrams.net" agent="Mozilla/5.0 (Windows NT 10.0; Win64; x64) AppleWebKit/537.36 (KHTML, like Gecko) Chrome/126.0.0.0 YaBrowser/24.7.0.0 Safari/537.36" version="24.7.14">
  <diagram name="Страница — 1" id="78nZSFmRqMDrysT5pKTU">
    <mxGraphModel dx="1195" dy="633" grid="1" gridSize="10" guides="1" tooltips="1" connect="1" arrows="1" fold="1" page="1" pageScale="1" pageWidth="827" pageHeight="1169" math="0" shadow="0">
      <root>
        <mxCell id="0" />
        <mxCell id="1" parent="0" />
        <mxCell id="ByjE5-4QtvyAvpfj3Tbz-1" value="Пользователь" style="shape=umlActor;verticalLabelPosition=bottom;verticalAlign=top;html=1;outlineConnect=0;" vertex="1" parent="1">
          <mxGeometry x="170" y="300" width="30" height="60" as="geometry" />
        </mxCell>
        <mxCell id="ByjE5-4QtvyAvpfj3Tbz-2" value="" style="rounded=0;whiteSpace=wrap;html=1;" vertex="1" parent="1">
          <mxGeometry x="265" y="170" width="230" height="510" as="geometry" />
        </mxCell>
        <mxCell id="ByjE5-4QtvyAvpfj3Tbz-3" value="&lt;b&gt;&lt;font style=&quot;font-size: 14px;&quot;&gt;Викторина&lt;/font&gt;&lt;/b&gt;" style="text;html=1;align=center;verticalAlign=middle;whiteSpace=wrap;rounded=0;fillColor=none;absoluteArcSize=0;noLabel=0;portConstraintRotation=0;fixDash=0;dropTarget=0;resizeWidth=0;" vertex="1" parent="1">
          <mxGeometry x="337" y="160" width="86" height="50" as="geometry" />
        </mxCell>
        <mxCell id="ByjE5-4QtvyAvpfj3Tbz-5" value="1.1" style="swimlane;whiteSpace=wrap;html=1;" vertex="1" parent="1">
          <mxGeometry x="331.11" y="330" width="97.78" height="80" as="geometry" />
        </mxCell>
        <mxCell id="ByjE5-4QtvyAvpfj3Tbz-7" value="Вход&lt;br&gt;Регистрация" style="whiteSpace=wrap;html=1;" vertex="1" parent="ByjE5-4QtvyAvpfj3Tbz-5">
          <mxGeometry y="20" width="97.78" height="60" as="geometry" />
        </mxCell>
        <mxCell id="ByjE5-4QtvyAvpfj3Tbz-14" value="" style="endArrow=classic;html=1;rounded=0;exitX=1;exitY=0.3333333333333333;exitDx=0;exitDy=0;exitPerimeter=0;entryX=0;entryY=0.5;entryDx=0;entryDy=0;" edge="1" parent="1" source="ByjE5-4QtvyAvpfj3Tbz-1" target="ByjE5-4QtvyAvpfj3Tbz-7">
          <mxGeometry width="50" height="50" relative="1" as="geometry">
            <mxPoint x="160" y="390" as="sourcePoint" />
            <mxPoint x="210" y="340" as="targetPoint" />
          </mxGeometry>
        </mxCell>
        <mxCell id="ByjE5-4QtvyAvpfj3Tbz-16" value="1.2.1" style="swimlane;whiteSpace=wrap;html=1;" vertex="1" parent="1">
          <mxGeometry x="280" y="440" width="97.78" height="80" as="geometry" />
        </mxCell>
        <mxCell id="ByjE5-4QtvyAvpfj3Tbz-17" value="Выбор викторины" style="whiteSpace=wrap;html=1;" vertex="1" parent="ByjE5-4QtvyAvpfj3Tbz-16">
          <mxGeometry y="20" width="97.78" height="60" as="geometry" />
        </mxCell>
        <mxCell id="ByjE5-4QtvyAvpfj3Tbz-18" value="1.2.2" style="swimlane;whiteSpace=wrap;html=1;" vertex="1" parent="1">
          <mxGeometry x="390" y="440" width="97.78" height="80" as="geometry" />
        </mxCell>
        <mxCell id="ByjE5-4QtvyAvpfj3Tbz-19" value="Создание викторины" style="whiteSpace=wrap;html=1;" vertex="1" parent="ByjE5-4QtvyAvpfj3Tbz-18">
          <mxGeometry y="20" width="97.78" height="60" as="geometry" />
        </mxCell>
        <mxCell id="ByjE5-4QtvyAvpfj3Tbz-20" value="1.3" style="swimlane;whiteSpace=wrap;html=1;" vertex="1" parent="1">
          <mxGeometry x="331.11" y="210" width="97.78" height="80" as="geometry" />
        </mxCell>
        <mxCell id="ByjE5-4QtvyAvpfj3Tbz-21" value="Переход в профиль" style="whiteSpace=wrap;html=1;" vertex="1" parent="ByjE5-4QtvyAvpfj3Tbz-20">
          <mxGeometry y="20" width="97.78" height="60" as="geometry" />
        </mxCell>
        <mxCell id="ByjE5-4QtvyAvpfj3Tbz-22" value="" style="endArrow=classic;html=1;rounded=0;exitX=0.5;exitY=1;exitDx=0;exitDy=0;entryX=0.5;entryY=0;entryDx=0;entryDy=0;" edge="1" parent="1" source="ByjE5-4QtvyAvpfj3Tbz-5" target="ByjE5-4QtvyAvpfj3Tbz-16">
          <mxGeometry width="50" height="50" relative="1" as="geometry">
            <mxPoint x="560" y="410" as="sourcePoint" />
            <mxPoint x="610" y="360" as="targetPoint" />
          </mxGeometry>
        </mxCell>
        <mxCell id="ByjE5-4QtvyAvpfj3Tbz-23" value="" style="endArrow=classic;html=1;rounded=0;exitX=0.5;exitY=1;exitDx=0;exitDy=0;entryX=0.5;entryY=0;entryDx=0;entryDy=0;" edge="1" parent="1" source="ByjE5-4QtvyAvpfj3Tbz-7" target="ByjE5-4QtvyAvpfj3Tbz-18">
          <mxGeometry width="50" height="50" relative="1" as="geometry">
            <mxPoint x="550" y="440" as="sourcePoint" />
            <mxPoint x="600" y="390" as="targetPoint" />
          </mxGeometry>
        </mxCell>
        <mxCell id="ByjE5-4QtvyAvpfj3Tbz-25" value="" style="endArrow=classic;html=1;rounded=0;exitX=0.5;exitY=0;exitDx=0;exitDy=0;entryX=0.5;entryY=1;entryDx=0;entryDy=0;" edge="1" parent="1" source="ByjE5-4QtvyAvpfj3Tbz-5" target="ByjE5-4QtvyAvpfj3Tbz-20">
          <mxGeometry width="50" height="50" relative="1" as="geometry">
            <mxPoint x="740" y="360" as="sourcePoint" />
            <mxPoint x="790" y="310" as="targetPoint" />
          </mxGeometry>
        </mxCell>
        <mxCell id="ByjE5-4QtvyAvpfj3Tbz-27" value="1.4" style="swimlane;whiteSpace=wrap;html=1;" vertex="1" parent="1">
          <mxGeometry x="337" y="570" width="97.78" height="80" as="geometry" />
        </mxCell>
        <mxCell id="ByjE5-4QtvyAvpfj3Tbz-28" value="Участие в викторине (игра)" style="whiteSpace=wrap;html=1;" vertex="1" parent="ByjE5-4QtvyAvpfj3Tbz-27">
          <mxGeometry y="20" width="97.78" height="60" as="geometry" />
        </mxCell>
        <mxCell id="ByjE5-4QtvyAvpfj3Tbz-31" value="Пользователь" style="shape=umlActor;verticalLabelPosition=bottom;verticalAlign=top;html=1;outlineConnect=0;" vertex="1" parent="1">
          <mxGeometry x="560" y="410" width="30" height="60" as="geometry" />
        </mxCell>
        <mxCell id="ByjE5-4QtvyAvpfj3Tbz-32" value="Пользователь" style="shape=umlActor;verticalLabelPosition=bottom;verticalAlign=top;html=1;outlineConnect=0;" vertex="1" parent="1">
          <mxGeometry x="560" y="500" width="30" height="60" as="geometry" />
        </mxCell>
        <mxCell id="ByjE5-4QtvyAvpfj3Tbz-34" value="Пользователь" style="shape=umlActor;verticalLabelPosition=bottom;verticalAlign=top;html=1;outlineConnect=0;" vertex="1" parent="1">
          <mxGeometry x="560" y="590" width="30" height="60" as="geometry" />
        </mxCell>
        <mxCell id="ByjE5-4QtvyAvpfj3Tbz-35" value="" style="endArrow=classic;html=1;rounded=0;exitX=0.5;exitY=1;exitDx=0;exitDy=0;entryX=0.5;entryY=0;entryDx=0;entryDy=0;" edge="1" parent="1" source="ByjE5-4QtvyAvpfj3Tbz-17" target="ByjE5-4QtvyAvpfj3Tbz-27">
          <mxGeometry width="50" height="50" relative="1" as="geometry">
            <mxPoint x="500" y="580" as="sourcePoint" />
            <mxPoint x="550" y="530" as="targetPoint" />
            <Array as="points">
              <mxPoint x="329" y="540" />
              <mxPoint x="386" y="540" />
            </Array>
          </mxGeometry>
        </mxCell>
        <mxCell id="ByjE5-4QtvyAvpfj3Tbz-36" value="" style="endArrow=none;html=1;rounded=0;exitX=0.5;exitY=0;exitDx=0;exitDy=0;" edge="1" parent="1" source="ByjE5-4QtvyAvpfj3Tbz-27">
          <mxGeometry width="50" height="50" relative="1" as="geometry">
            <mxPoint x="390" y="540" as="sourcePoint" />
            <mxPoint x="440" y="520" as="targetPoint" />
            <Array as="points">
              <mxPoint x="386" y="540" />
              <mxPoint x="440" y="540" />
            </Array>
          </mxGeometry>
        </mxCell>
        <mxCell id="ByjE5-4QtvyAvpfj3Tbz-37" value="" style="endArrow=classic;html=1;rounded=0;exitX=0;exitY=1;exitDx=0;exitDy=0;exitPerimeter=0;entryX=1;entryY=0.5;entryDx=0;entryDy=0;" edge="1" parent="1" source="ByjE5-4QtvyAvpfj3Tbz-31" target="ByjE5-4QtvyAvpfj3Tbz-27">
          <mxGeometry width="50" height="50" relative="1" as="geometry">
            <mxPoint x="530" y="580" as="sourcePoint" />
            <mxPoint x="580" y="530" as="targetPoint" />
          </mxGeometry>
        </mxCell>
        <mxCell id="ByjE5-4QtvyAvpfj3Tbz-38" value="" style="endArrow=classic;html=1;rounded=0;exitX=0;exitY=1;exitDx=0;exitDy=0;exitPerimeter=0;entryX=1.011;entryY=0.41;entryDx=0;entryDy=0;entryPerimeter=0;" edge="1" parent="1" source="ByjE5-4QtvyAvpfj3Tbz-32" target="ByjE5-4QtvyAvpfj3Tbz-28">
          <mxGeometry width="50" height="50" relative="1" as="geometry">
            <mxPoint x="560" y="560" as="sourcePoint" />
            <mxPoint x="610" y="510" as="targetPoint" />
          </mxGeometry>
        </mxCell>
        <mxCell id="ByjE5-4QtvyAvpfj3Tbz-39" value="" style="endArrow=classic;html=1;rounded=0;exitX=0;exitY=1;exitDx=0;exitDy=0;exitPerimeter=0;entryX=1;entryY=0.5;entryDx=0;entryDy=0;" edge="1" parent="1" source="ByjE5-4QtvyAvpfj3Tbz-34" target="ByjE5-4QtvyAvpfj3Tbz-28">
          <mxGeometry width="50" height="50" relative="1" as="geometry">
            <mxPoint x="580" y="730" as="sourcePoint" />
            <mxPoint x="630" y="680" as="targetPoint" />
          </mxGeometry>
        </mxCell>
      </root>
    </mxGraphModel>
  </diagram>
</mxfile>
